<svg width="277" height="793" viewBox="0 0 277 793" fill="none" xmlns="http://www.w3.org/2000/svg">
<path d="M136.181 125.5C134.904 146.422 133.816 203.256 132.633 224.178V251.395C131.703 267.576 131.186 283.748 131.084 299.913C131.084 308.694 131.498 318.433 137.648 324.764C141.563 328.764 147.11 330.598 152.338 332.633C165.158 337.655 177.096 344.69 187.702 353.473C190.068 355.437 192.504 357.709 193.155 360.715C194.586 367.33 187.087 372.146 180.688 374.335C157.86 382.074 133.439 383.874 109.723 379.566C105.69 378.832 100.652 376.537 101.196 372.466C101.48 370.442 103.171 368.916 104.874 367.732C117.577 359.117 134.443 361.236 149.582 363.709L171.226 367.259C177.767 368.324 185.23 370.028 188.305 375.898C191.167 381.388 188.648 388.477 184.024 392.571C179.399 396.666 173.178 398.429 167.134 399.671C148.014 403.688 128.327 404.234 109.014 401.281C104.756 400.618 99.3033 398.121 100.202 393.908C120.244 390.104 140.499 387.519 160.854 386.169C171.735 385.447 184.662 386.039 190.683 395.139C197.152 404.902 191.085 418.546 182.037 425.99C161.54 442.853 131.592 439.598 105.643 434.025C102.686 433.397 99.0313 431.895 99.1141 428.865C99.3394 427.327 100.133 425.93 101.338 424.948C118.937 407.304 147.335 407.742 171.995 411.304C181.54 412.688 192.61 415.552 196.171 424.522C200.488 435.374 190.257 446.829 179.423 451.195C168.589 455.562 156.194 456.379 146.661 463.112C130.102 474.792 128.919 498.495 129.44 518.73C130.055 544.764 130.674 570.767 131.297 596.738C131.663 612.015 132.018 627.506 128.553 642.369C127.642 646.262 126.305 650.356 123.124 652.771C119.942 655.185 114.431 654.782 112.869 651.102C112.283 649.23 112.283 647.223 112.869 645.351C114.904 635.647 118.57 625.884 125.797 619.116C133.024 612.347 144.461 609.436 153.118 614.169C164.946 620.713 166.211 637.292 163.195 650.451C163.081 651.181 162.806 651.876 162.391 652.487C161.937 652.953 161.378 653.305 160.761 653.51C160.144 653.716 159.486 653.771 158.843 653.67C151.001 653.161 147.619 643.623 146.329 635.919C139.663 595.901 137.738 555.236 140.593 514.766C141.433 502.707 142.722 490.59 146.306 479.052C147.642 474.733 150.079 469.857 154.585 469.289C158.453 468.792 161.989 472.07 163.219 475.774C164.449 479.478 163.964 483.501 163.55 487.383C158.522 535.925 168.162 584.859 191.227 627.861C196.809 638.203 203.137 651.102 196.561 660.841C191.747 667.941 182.013 669.693 173.426 669.338C155.283 668.604 137.482 661.504 119.457 663.646C106.305 665.255 91.4853 671.42 80.9352 663.421C67.5465 653.22 101.823 614.595 108.541 588.928C112.515 573.757 113.047 557.935 113.555 542.256C114.194 523.05 114.738 503.204 107.464 485.359C103.916 476.732 97.5647 468.106 88.3511 466.78C78.6643 465.384 69.5808 472.886 65.3702 481.726C61.1596 490.566 60.5328 500.566 58.9479 510.269C53.2234 545.143 34.6069 576.301 20.1064 608.501C5.60589 640.7 -5.20444 677.432 5.70051 711.052C7.42732 716.377 12.2056 727.299 15.8485 731.536L16.1087 731.914C23.2052 742.328 31.0823 752.032 40.7454 760.161C56.1211 772.966 75.0451 780.646 94.454 785.557C121.657 792.444 150.469 794.183 177.885 788.101C205.301 782.018 231.227 767.818 249.311 746.328C266.577 725.674 275.986 699.577 275.876 672.651C275.714 663.534 274.712 654.45 272.884 645.517C270.729 634.474 267.715 623.618 263.871 613.045C248.945 572.041 221.493 535.38 214.196 492.341C212.185 480.342 211.393 467.147 203.243 458.106C193.58 447.397 177.377 446.592 162.971 445.811C138.493 444.472 114.182 440.96 90.3263 435.315C85.2168 434.131 79.3622 432.119 77.6827 427.149C75.6365 421.031 81.2309 415.256 86.2694 411.233C80.5094 411.671 76.3935 403.423 80.2019 399.08C81.5621 397.518 83.7502 395.944 83.0997 393.991C82.6384 392.63 81.0298 392.122 79.7761 391.411C74.6193 388.5 76.0386 379.057 81.8223 377.779C76.9967 375.897 71.1184 371.282 73.8269 366.868C75.1871 364.656 78.1676 364.005 79.8116 361.993C81.4556 359.981 81.3374 356.81 81.7277 354.076C82.6266 347.911 86.9081 342.775 91.5208 338.574C120.687 311.995 164.355 311.357 203.787 312.173L253.558 313.238" stroke="black" strokeWidth="2" strokeMiterlimit="10" strokeLinecap="round"/>
</svg>
