<svg width="952" height="69" viewBox="0 0 952 69" fill="none" xmlns="http://www.w3.org/2000/svg">
<path d="M40.48 49.72C43.5733 49.72 46.48 49.4 49.2 48.76C51.92 48.12 54.2667 47.0533 56.24 45.56C58.2667 44.0667 59.84 42.1467 60.96 39.8C62.1333 37.4 62.72 34.4667 62.72 31C62.72 27.5333 62.1333 24.6267 60.96 22.28C59.84 19.88 58.2667 17.9333 56.24 16.44C54.2667 14.9467 51.92 13.88 49.2 13.24C46.48 12.6 43.5733 12.28 40.48 12.28H12V49.72H40.48ZM40.48 16.76C42.88 16.76 45.1467 17 47.28 17.48C49.4667 17.9067 51.36 18.68 52.96 19.8C54.6133 20.92 55.92 22.3867 56.88 24.2C57.8933 26.0133 58.4 28.28 58.4 31C58.4 33.72 57.92 36.0133 56.96 37.88C56 39.6933 54.6933 41.16 53.04 42.28C51.3867 43.3467 49.4667 44.12 47.28 44.6C45.1467 45.0267 42.88 45.24 40.48 45.24H16.32V16.76H40.48ZM40.48 7.4C44.3733 7.4 47.9733 7.82666 51.28 8.68C54.5867 9.48 57.4667 10.84 59.92 12.76C62.3733 14.6267 64.2933 17.0533 65.68 20.04C67.0667 23.0267 67.76 26.68 67.76 31C67.76 35.32 67.0667 38.9733 65.68 41.96C64.2933 44.9467 62.3733 47.4 59.92 49.32C57.4667 51.1867 54.5867 52.5467 51.28 53.4C47.9733 54.2 44.3733 54.6 40.48 54.6H7.12V7.4H40.48ZM40.48 59.08C45.12 59.08 49.36 58.5733 53.2 57.56C57.0933 56.5467 60.4267 54.92 63.2 52.68C66.0267 50.44 68.2133 47.5333 69.76 43.96C71.36 40.3867 72.16 36.0667 72.16 31C72.16 25.9333 71.36 21.6133 69.76 18.04C68.2133 14.4667 66.0267 11.56 63.2 9.32C60.4267 7.08 57.0933 5.45333 53.2 4.44C49.36 3.42666 45.12 2.92 40.48 2.92H2.72V59.08H40.48ZM0.72 0.919999H40.48C43.52 0.919999 46.4533 1.08 49.28 1.4C52.1067 1.66666 54.88 2.30666 57.6 3.32C60.3733 4.33333 63.12 5.82666 65.84 7.8C68.6133 9.77333 71.44 12.44 74.32 15.8C76.72 18.2 78.5867 21.48 79.92 25.64C81.2533 29.7467 81.92 34.2 81.92 39C81.92 44.3867 81.0933 48.9733 79.44 52.76C77.7867 56.5467 75.4667 59.6133 72.48 61.96C69.5467 64.36 66.0267 66.0933 61.92 67.16C57.8133 68.28 53.3333 68.84 48.48 68.84H8.96L0.72 61.08V0.919999ZM26.08 43.24H40.48C42.6133 43.24 44.64 43.0533 46.56 42.68C48.48 42.2533 50.16 41.5867 51.6 40.68C53.0933 39.72 54.2667 38.4667 55.12 36.92C55.9733 35.32 56.4 33.3467 56.4 31C56.4 29.8267 56.2667 28.6533 56 27.48C53.6533 26.84 51.1467 26.52 48.48 26.52H26.08V43.24ZM145.131 28.6V33.4H104.411V49.72H153.451V54.6H99.4506V7.4H153.371V12.28H104.411V28.6H145.131ZM157.851 16.76V2.92H94.9706V59.08H157.931V45.24H108.811V37.8H149.531V24.2H108.811V16.76H157.851ZM92.9706 61.08V0.919999H159.851L167.611 9.16V26.52H155.371L159.291 30.44V43.24L167.691 51.48V68.84H101.211L92.9706 61.08ZM214.018 54.6C208.365 46.6533 202.738 38.7867 197.138 31C191.538 23.2133 185.911 15.3467 180.258 7.4H186.658L216.098 48.68C220.951 41.8 225.751 34.9467 230.498 28.12C235.298 21.24 240.098 14.3333 244.898 7.4H250.898L217.858 54.6H214.018ZM242.498 2.92C238.071 9.32 233.671 15.6933 229.298 22.04C224.925 28.3867 220.471 34.7333 215.938 41.08L188.818 2.92H171.858L211.858 59.08H220.258L259.458 2.92H242.498ZM270.818 9.16L229.218 68.84H218.898L210.818 61.08L167.938 0.919999H191.458L197.778 9.16L216.898 36.28C218.551 33.9867 220.205 31.64 221.858 29.24C223.565 26.7867 225.378 24.1733 227.298 21.4C229.271 18.5733 231.405 15.5067 233.698 12.2C235.991 8.84 238.578 5.08 241.458 0.919999H263.218L270.818 9.16ZM327.162 28.6V33.4H286.442V49.72H335.482V54.6H281.482V7.4H335.402V12.28H286.442V28.6H327.162ZM339.882 16.76V2.92H277.002V59.08H339.962V45.24H290.842V37.8H331.562V24.2H290.842V16.76H339.882ZM275.002 61.08V0.919999H341.882L349.642 9.16V26.52H337.402L341.322 30.44V43.24L349.722 51.48V68.84H283.242L275.002 61.08ZM371.589 7.4V49.72H416.789V54.6H366.789V7.4H371.589ZM421.189 59.08V45.24H376.069V2.92H362.389V59.08H421.189ZM360.389 0.919999H378.069L385.829 9.16V43.24H423.189L430.949 51.48V68.84H368.629L360.389 61.08V0.919999ZM475.479 49.72C478.572 49.72 481.452 49.4 484.119 48.76C486.839 48.0667 489.185 47 491.159 45.56C493.185 44.0667 494.759 42.1467 495.879 39.8C496.999 37.4 497.559 34.4667 497.559 31C497.559 27.5867 496.972 24.68 495.799 22.28C494.679 19.88 493.132 17.96 491.159 16.52C489.185 15.0267 486.839 13.96 484.119 13.32C481.452 12.6267 478.572 12.28 475.479 12.28H466.679C463.532 12.28 460.599 12.6267 457.879 13.32C455.212 13.96 452.892 15.0267 450.919 16.52C448.945 17.96 447.372 19.88 446.199 22.28C445.079 24.68 444.519 27.5867 444.519 31C444.519 34.4667 445.079 37.4 446.199 39.8C447.372 42.1467 448.945 44.0667 450.919 45.56C452.892 47.0533 455.212 48.12 457.879 48.76C460.599 49.4 463.532 49.72 466.679 49.72H475.479ZM466.679 45.24C464.279 45.24 462.012 45 459.879 44.52C457.745 44.04 455.879 43.2667 454.279 42.2C452.679 41.08 451.399 39.6133 450.439 37.8C449.479 35.9867 448.999 33.72 448.999 31C448.999 28.3333 449.479 26.0933 450.439 24.28C451.399 22.4667 452.679 21 454.279 19.88C455.932 18.76 457.825 17.96 459.959 17.48C462.092 17 464.332 16.76 466.679 16.76H475.479C477.825 16.76 480.065 17 482.199 17.48C484.332 17.96 486.199 18.76 487.799 19.88C489.399 21 490.679 22.4667 491.639 24.28C492.599 26.0933 493.079 28.3333 493.079 31C493.079 33.6667 492.599 35.9067 491.639 37.72C490.732 39.5333 489.479 41 487.879 42.12C486.279 43.24 484.412 44.04 482.279 44.52C480.145 45 477.879 45.24 475.479 45.24H466.679ZM439.479 31C439.479 26.68 440.145 23.0267 441.479 20.04C442.865 17.0533 444.759 14.6267 447.159 12.76C449.612 10.84 452.492 9.48 455.799 8.68C459.159 7.82666 462.785 7.4 466.679 7.4H475.479C479.372 7.4 482.972 7.82666 486.279 8.68C489.585 9.53333 492.439 10.8933 494.839 12.76C497.292 14.6267 499.185 17.0533 500.519 20.04C501.905 23.0267 502.599 26.68 502.599 31C502.599 35.32 501.905 38.9733 500.519 41.96C499.185 44.9467 497.292 47.3733 494.839 49.24C492.439 51.1067 489.585 52.4667 486.279 53.32C482.972 54.1733 479.372 54.6 475.479 54.6H466.679C462.785 54.6 459.159 54.2 455.799 53.4C452.492 52.5467 449.612 51.1867 447.159 49.32C444.759 47.4 442.865 44.9467 441.479 41.96C440.145 38.9733 439.479 35.32 439.479 31ZM434.999 31C434.999 36.0667 435.772 40.3867 437.319 43.96C438.919 47.48 441.105 50.36 443.879 52.6C446.705 54.84 450.039 56.4933 453.879 57.56C457.772 58.5733 462.039 59.08 466.679 59.08H475.479C480.119 59.08 484.359 58.5733 488.199 57.56C492.039 56.4933 495.345 54.84 498.119 52.6C500.945 50.36 503.132 47.48 504.679 43.96C506.225 40.3867 506.999 36.0667 506.999 31C506.999 25.9333 506.225 21.64 504.679 18.12C503.132 14.5467 500.945 11.64 498.119 9.4C495.345 7.16 492.039 5.53333 488.199 4.52C484.359 3.45333 480.119 2.92 475.479 2.92H466.679C462.039 2.92 457.772 3.45333 453.879 4.52C450.039 5.53333 446.705 7.16 443.879 9.4C441.105 11.64 438.919 14.5467 437.319 18.12C435.772 21.64 434.999 25.9333 434.999 31ZM432.999 31C432.999 25.56 433.825 20.9467 435.479 17.16C437.132 13.32 439.452 10.2 442.439 7.8C445.425 5.4 448.972 3.66666 453.079 2.6C457.239 1.48 461.772 0.919999 466.679 0.919999H475.479C478.572 0.919999 481.479 1.10666 484.199 1.48C486.972 1.8 489.692 2.52 492.359 3.64C495.025 4.70666 497.665 6.25333 500.279 8.28C502.945 10.2533 505.692 12.92 508.519 16.28C510.919 18.68 512.892 21.8533 514.439 25.8C515.985 29.7467 516.759 34.1467 516.759 39C516.759 44.3867 515.932 48.9733 514.279 52.76C512.679 56.5467 510.385 59.6133 507.399 61.96C504.465 64.36 500.945 66.0933 496.839 67.16C492.785 68.28 488.332 68.84 483.479 68.84H474.679C469.239 68.84 464.172 68.2267 459.479 67C454.785 65.7733 450.919 63.6667 447.879 60.68C444.839 58.0133 442.359 55.5067 440.439 53.16C438.519 50.76 436.999 48.3867 435.879 46.04C434.812 43.6933 434.065 41.2933 433.639 38.84C433.212 36.3867 432.999 33.7733 432.999 31ZM475.479 43.24C477.559 43.24 479.532 43.0533 481.399 42.68C483.319 42.2533 484.999 41.56 486.439 40.6C487.879 39.64 488.999 38.3867 489.799 36.84C490.652 35.24 491.079 33.2933 491.079 31C491.079 29.72 490.919 28.5467 490.599 27.48C488.412 26.84 486.039 26.52 483.479 26.52H474.679C472.545 26.52 470.519 26.7333 468.599 27.16C466.679 27.5867 464.972 28.28 463.479 29.24C462.039 30.2 460.892 31.48 460.039 33.08C459.185 34.68 458.759 36.6533 458.759 39C458.759 40.28 458.865 41.3467 459.079 42.2C460.199 42.5733 461.399 42.84 462.679 43C463.959 43.16 465.292 43.24 466.679 43.24H475.479ZM570.836 16.76C571.476 16.76 572.116 16.8133 572.756 16.92C573.45 17.0267 574.063 17.2133 574.596 17.48C575.183 17.7467 575.663 18.12 576.036 18.6C576.41 19.08 576.596 19.72 576.596 20.52C576.596 21.2667 576.383 21.88 575.956 22.36C575.583 22.84 575.103 23.2133 574.516 23.48C573.93 23.7467 573.29 23.9333 572.596 24.04C571.903 24.1467 571.29 24.2 570.756 24.2H541.156V16.76H570.836ZM570.756 28.6C572.036 28.6 573.29 28.4667 574.516 28.2C575.796 27.88 576.916 27.4 577.876 26.76C578.836 26.12 579.61 25.2933 580.196 24.28C580.783 23.2133 581.076 21.96 581.076 20.52C581.076 19.0267 580.783 17.7733 580.196 16.76C579.663 15.6933 578.916 14.84 577.956 14.2C577.05 13.5067 575.956 13.0267 574.676 12.76C573.45 12.44 572.17 12.28 570.836 12.28H536.676V28.6H570.756ZM536.676 54.6H531.796V7.4H570.836C573.023 7.4 575.05 7.66666 576.916 8.2C578.783 8.68 580.383 9.45333 581.716 10.52C583.103 11.5333 584.17 12.8933 584.916 14.6C585.716 16.2533 586.116 18.2267 586.116 20.52C586.116 23.4533 585.423 25.88 584.036 27.8C582.703 29.6667 580.703 31.1333 578.036 32.2V32.28C576.81 32.7067 575.103 33.0267 572.916 33.24C570.73 33.4533 568.276 33.6133 565.556 33.72C562.89 33.7733 560.09 33.8 557.156 33.8C554.223 33.8 551.423 33.7733 548.756 33.72C546.09 33.6133 543.69 33.5333 541.556 33.48C539.423 33.4267 537.796 33.4 536.676 33.4V54.6ZM590.596 20.52C590.596 17.48 590.116 14.8667 589.156 12.68C588.196 10.44 586.836 8.6 585.076 7.16C583.37 5.72 581.29 4.65333 578.836 3.96C576.436 3.26666 573.77 2.92 570.836 2.92H527.316V59.08H541.156V37.8C542.436 37.8 544.09 37.8267 546.116 37.88C548.196 37.9333 550.436 38.0133 552.836 38.12C555.236 38.1733 557.743 38.2 560.356 38.2C562.97 38.2 565.476 38.1467 567.876 38.04C570.33 37.9333 572.596 37.7467 574.676 37.48C576.756 37.2133 578.49 36.84 579.876 36.36V36.28C583.396 34.7867 586.063 32.76 587.876 30.2C589.69 27.64 590.596 24.4133 590.596 20.52ZM525.316 61.08V0.919999H570.836C572.916 0.919999 574.943 1.08 576.916 1.4C578.943 1.66666 580.97 2.28 582.996 3.24C585.076 4.14667 587.21 5.45333 589.396 7.16C591.583 8.86666 593.876 11.1333 596.276 13.96C597.823 15.5067 598.89 17.56 599.476 20.12C600.063 22.68 600.356 25.48 600.356 28.52C600.356 32.84 599.343 36.4133 597.316 39.24C595.343 42.0667 592.41 44.3333 588.516 46.04C587.45 46.4133 586.17 46.7333 584.676 47C583.236 47.2133 581.636 47.4 579.876 47.56C578.116 47.72 576.25 47.8267 574.276 47.88C572.356 47.9333 570.41 47.96 568.436 47.96C565.556 47.96 562.703 47.96 559.876 47.96C557.05 47.96 554.063 47.9333 550.916 47.88V68.84H533.556L525.316 61.08ZM616.579 7.4H620.739L648.339 48.36C652.872 41.4267 657.432 34.5733 662.019 27.8C666.659 21.0267 671.325 14.2267 676.019 7.4H680.179V54.6H675.219V17.48L650.339 54.6H646.419L621.539 17.56V54.6H616.579V7.4ZM625.939 32.12L643.939 59.08H652.739L670.819 32.04V59.08H684.579V2.92H673.539L648.259 40.36L623.139 2.92H612.179V59.08H625.939V32.12ZM632.019 9.16L649.379 35.16L672.579 0.919999H686.579L694.339 9.16V68.84H677.059L668.819 61.08V58.12L661.619 68.84H651.059L642.979 61.08L635.699 50.2V68.84H618.419L610.179 61.08V0.919999H624.099L632.019 9.16ZM758.959 28.6V33.4H718.239V49.72H767.279V54.6H713.279V7.4H767.199V12.28H718.239V28.6H758.959ZM771.679 16.76V2.92H708.799V59.08H771.759V45.24H722.639V37.8H763.359V24.2H722.639V16.76H771.679ZM706.799 61.08V0.919999H773.679L781.439 9.16V26.52H769.199L773.119 30.44V43.24L781.519 51.48V68.84H715.039L706.799 61.08ZM800.886 15V54.6H796.166V7.4H800.246L843.206 47V7.4H848.006V54.6H844.006L800.886 15ZM852.486 2.92H838.806V36.92L801.766 2.92H791.686V59.08H805.366V25L842.486 59.08H852.486V2.92ZM789.686 61.08V0.919999H802.486L836.806 32.36V0.919999H854.486L862.246 9.16V68.84H849.766L815.126 37.08V68.84H797.926L789.686 61.08ZM905.557 12.28H878.757V7.4H937.237V12.28H910.357V54.6H905.557V12.28ZM914.757 16.76H941.637V2.92H874.357V16.76H901.157V59.08H914.757V16.76ZM872.357 18.76V0.919999H943.637L951.397 9.16V26.52H924.517V68.84H907.397L899.157 61.08V26.52H880.597L872.357 18.76Z" fill="#FFF9F1"/>
</svg>
