<svg width="622" height="453" viewBox="0 0 622 453" fill="none" xmlns="http://www.w3.org/2000/svg">
<path d="M0 451.853H365.43C365.43 451.853 306.412 426.785 286.142 378.519C273.628 345.133 280.774 326.054 278.388 318.299C276.002 310.543 253.359 270.607 249.78 268.817C246.201 267.027 272.435 312.941 268.856 322.475C265.277 332.009 258.807 330.334 258.807 330.334C258.807 330.334 263.12 314.639 257.729 306.012C252.338 297.384 242.278 303.017 242.278 303.017C242.278 303.017 262.684 315.109 244.916 340.739C244.916 340.739 238.813 319.538 230.428 313.067C230.428 313.067 241.681 332.709 238.928 344.216C238.928 344.216 228.742 333.672 225.874 315.465C225.874 315.465 218.2 300.849 218.085 290.42C217.971 279.991 216.594 242.349 227.87 230.223C239.146 218.096 252.269 217.431 259.335 219.897C266.401 222.364 280.132 249.004 268.707 257.516C257.282 266.029 244.514 247.673 239.731 232.276C234.948 216.88 227.767 203.881 228.57 202.241C229.373 200.6 295.824 168.626 296.248 109.863C296.673 51.0994 259.989 1.14722 192.482 1.14722C124.976 1.14722 92.0543 53.6578 92.0543 112.433C92.0543 171.207 211.065 209.951 217.948 204.948C224.83 199.946 229.969 189.139 242.381 176.049C253.783 164.025 275.865 149.937 275.865 110.757C275.865 71.5782 249.94 17.8285 191.691 17.8285C133.441 17.8285 110.385 81.5824 110.385 111.171C110.385 140.759 138.328 163.589 148.239 163.475C157.679 163.36 159.71 163.085 164.608 159.677C170.103 155.903 168.141 144.132 170.94 142.468C173.739 140.805 202.955 150.969 213.233 130.915C223.511 110.861 216.457 104.608 214.449 104C212.442 103.392 191.599 102.004 190.67 85.5519C189.741 69.1001 218.785 87.2614 220.494 91.9308C222.203 96.6002 211.318 90.0492 210.17 88.489C209.023 86.9287 206.58 82.179 207.257 80.8367C207.934 79.4944 223.683 91.7128 221.836 98.1949C219.99 104.677 216.812 107.993 209.907 106.226C203.001 104.459 189.041 96.6116 187.401 86.16C187.401 86.16 162.646 96.2675 162.612 115.542C162.578 134.816 172.11 139.887 177.949 139.795C183.787 139.703 196.772 139.347 197.266 132.659C197.759 125.97 190.785 120.188 184.556 126.292C178.327 132.395 185.944 138.487 190.67 135.561C195.396 132.636 201.705 130.158 203.414 123.986C205.123 117.813 202.703 107.511 198.505 110.081C194.306 112.65 189.982 116.964 193.239 120.188C196.497 123.412 205.662 123.733 207.658 117.894C209.654 112.054 201.051 101.442 196.348 104.126C191.645 106.811 175.7 124.376 173.406 131.936C171.112 139.497 170.102 134.322 168.921 132.2C167.739 130.078 165.663 113.683 168.737 110.987C171.812 108.291 179.543 105.549 180.346 110.436C181.149 115.324 173.911 117.905 171.995 116.7C170.08 115.496 168.611 104.551 171.617 100.639C174.622 96.7264 183.088 90.8638 185.485 93.3075C187.882 95.7512 188.926 99.7437 186.529 101.499C184.131 103.254 178.362 105.572 176.939 100.122C175.517 94.6727 187.263 94.6613 188.227 92.8945C189.19 91.1277 187.676 82.787 185.164 83.2459C185.164 83.2459 181.08 81.5709 174.221 86.4009C167.361 91.2309 143.444 116.081 168.485 140.862C172.156 144.499 128.647 174.672 177.295 183.999C225.943 193.327 219.015 202.115 221.022 207.702C222.628 215.331 241.314 261.624 241.314 261.624C241.314 261.624 231.713 222.215 254.54 213.725C277.367 205.235 338.76 307.296 340.905 346.613C340.905 346.613 298.6 289.25 288.012 247.248C288.012 247.248 265.896 221.446 266.642 200.967C267.387 180.489 299.839 231.037 320.681 235.833C341.524 240.629 359.602 240.078 366.565 251.895C373.528 263.712 380.996 307.469 391.159 337.665C401.322 367.861 402.779 376.775 412.954 383.406C423.128 390.038 428.084 401.625 466.959 401.625C505.834 401.625 622.034 403.174 622.034 403.174" stroke="#221F20" stroke-width="2" stroke-miterlimit="10"/>
</svg>
