<svg width="977" height="80" viewBox="0 0 977 80" fill="none" xmlns="http://www.w3.org/2000/svg">
<path d="M6.92 7.4H11.72V54.6H6.92V7.4ZM16.12 2.92H2.52V59.08H16.12V2.92ZM0.52 61.08V0.919999H18.12L25.88 9.16V68.84H8.76L0.52 61.08ZM46.6556 43.64C48.3623 45.2933 50.2556 46.5467 52.3356 47.4C54.4156 48.2533 56.5756 48.8667 58.8156 49.24C61.0556 49.56 63.349 49.7467 65.6956 49.8C68.0423 49.8 70.309 49.8 72.4956 49.8C73.2956 49.8 74.3623 49.7733 75.6956 49.72C77.0823 49.6667 78.549 49.56 80.0956 49.4C81.6956 49.1867 83.2956 48.92 84.8956 48.6C86.4956 48.2267 87.9356 47.7467 89.2156 47.16C90.549 46.5733 91.6156 45.88 92.4156 45.08C93.269 44.2267 93.6956 43.2133 93.6956 42.04C93.6956 40.8667 93.2423 39.8533 92.3356 39C91.4823 38.0933 90.3623 37.32 88.9756 36.68C87.589 36.04 86.0156 35.5067 84.2556 35.08C82.549 34.6 80.8423 34.2533 79.1356 34.04C77.429 33.7733 75.829 33.5867 74.3356 33.48C72.8956 33.3733 71.7223 33.32 70.8156 33.32H70.8956C69.6156 33.2667 68.0423 33.1333 66.1756 32.92C64.309 32.7067 62.3623 32.3867 60.3356 31.96C58.309 31.5333 56.2823 31 54.2556 30.36C52.229 29.6667 50.4156 28.84 48.8156 27.88C47.2156 26.92 45.909 25.8 44.8956 24.52C43.8823 23.1867 43.3756 21.6667 43.3756 19.96C43.3756 18.0933 43.8556 16.4933 44.8156 15.16C45.829 13.8267 47.109 12.7067 48.6556 11.8C50.2556 10.84 52.0423 10.0933 54.0156 9.56C55.989 8.97333 57.989 8.52 60.0156 8.2C62.0423 7.88 63.9623 7.66666 65.7756 7.56C67.6423 7.45333 69.2156 7.4 70.4956 7.4C72.5756 7.4 74.6823 7.50666 76.8156 7.72C79.0023 7.88 81.1356 8.2 83.2156 8.68C85.2956 9.16 87.3223 9.82667 89.2956 10.68C91.269 11.48 93.0823 12.52 94.7356 13.8L90.4956 16.84C88.949 15.7733 87.3223 14.9467 85.6156 14.36C83.909 13.72 82.149 13.24 80.3356 12.92C78.5223 12.6 76.6823 12.4133 74.8156 12.36C72.949 12.2533 71.1356 12.2 69.3756 12.2C68.149 12.2 66.469 12.28 64.3356 12.44C62.2556 12.6 60.1756 12.9467 58.0956 13.48C56.069 13.96 54.309 14.7333 52.8156 15.8C51.3223 16.8133 50.5756 18.2 50.5756 19.96C50.5756 21.6667 51.2956 23.0533 52.7356 24.12C54.1756 25.1333 56.069 25.96 58.4156 26.6C60.7623 27.1867 63.429 27.6667 66.4156 28.04C69.4556 28.36 72.549 28.7067 75.6956 29.08C78.8423 29.4533 81.909 29.9067 84.8956 30.44C87.9356 30.92 90.629 31.64 92.9756 32.6C95.3223 33.5067 97.2156 34.7333 98.6556 36.28C100.096 37.7733 100.816 39.6933 100.816 42.04C100.816 43.6933 100.309 45.16 99.2956 46.44C98.3356 47.72 97.0556 48.84 95.4556 49.8C93.8556 50.7067 92.0423 51.48 90.0156 52.12C88.0423 52.7067 86.0423 53.1867 84.0156 53.56C82.0423 53.9333 80.149 54.2 78.3356 54.36C76.5223 54.52 75.029 54.6 73.8556 54.6H67.8556C65.669 54.6 63.3756 54.52 60.9756 54.36C58.5756 54.2 56.229 53.8533 53.9356 53.32C51.6423 52.7333 49.4556 51.9333 47.3756 50.92C45.2956 49.9067 43.4556 48.52 41.8556 46.76L46.6556 43.64ZM35.2156 45.08C37.349 48.5467 39.8823 51.24 42.8156 53.16C45.749 55.0267 48.9223 56.4133 52.3356 57.32C55.749 58.1733 59.269 58.68 62.8956 58.84C66.5756 59 70.229 59.08 73.8556 59.08C75.4556 59.08 77.349 58.9733 79.5356 58.76C81.7223 58.4933 83.989 58.0933 86.3356 57.56C88.6823 57.0267 90.9756 56.3333 93.2156 55.48C95.509 54.5733 97.5356 53.5067 99.2956 52.28C101.109 51 102.549 49.5333 103.616 47.88C104.736 46.1733 105.296 44.2267 105.296 42.04C105.296 39.4267 104.709 37.2133 103.536 35.4C102.416 33.5333 100.922 31.9867 99.0556 30.76C97.2423 29.48 95.1356 28.4667 92.7356 27.72C90.389 26.92 87.9623 26.3067 85.4556 25.88C82.949 25.4533 80.4956 25.1333 78.0956 24.92C75.6956 24.7067 73.5623 24.52 71.6956 24.36C71.0556 24.3067 69.829 24.2 68.0156 24.04C66.2023 23.8267 64.3356 23.56 62.4156 23.24C60.4956 22.8667 58.789 22.4133 57.2956 21.88C55.8023 21.3467 55.0556 20.7067 55.0556 19.96C55.0556 19.1067 55.749 18.4667 57.1356 18.04C58.5223 17.6133 60.0956 17.2933 61.8556 17.08C63.669 16.8667 65.4023 16.76 67.0556 16.76C68.7623 16.7067 69.909 16.68 70.4956 16.68C72.2023 16.68 73.9356 16.76 75.6956 16.92C77.4556 17.0267 79.1623 17.2933 80.8156 17.72C82.5223 18.1467 84.1223 18.76 85.6156 19.56C87.1623 20.36 88.5756 21.4 89.8556 22.68L101.536 14.84C99.509 12.0667 97.2156 9.90666 94.6556 8.36C92.0956 6.76 89.3756 5.56 86.4956 4.76C83.6156 3.96 80.6023 3.45333 77.4556 3.24C74.3623 3.02666 71.2423 2.92 68.0956 2.92C66.4423 2.92 64.549 3.05333 62.4156 3.32C60.3356 3.53333 58.2023 3.90666 56.0156 4.44C53.8823 4.97333 51.7756 5.66666 49.6956 6.52C47.669 7.37333 45.8556 8.44 44.2556 9.72C42.6556 11 41.3756 12.4933 40.4156 14.2C39.4556 15.8533 38.9756 17.7733 38.9756 19.96C38.9756 22.4667 39.589 24.6267 40.8156 26.44C42.0423 28.2533 43.669 29.8 45.6956 31.08C47.7223 32.36 50.0156 33.4 52.5756 34.2C55.1356 35 57.7223 35.6667 60.3356 36.2C63.0023 36.68 65.5623 37.08 68.0156 37.4C70.5223 37.6667 72.709 37.9067 74.5756 38.12C75.109 38.1733 76.149 38.28 77.6956 38.44C79.2956 38.6 80.949 38.84 82.6556 39.16C84.3623 39.4267 85.8823 39.8 87.2156 40.28C88.549 40.76 89.2156 41.3467 89.2156 42.04C89.2156 42.6267 88.789 43.1333 87.9356 43.56C87.0823 43.9333 85.989 44.2533 84.6556 44.52C83.3223 44.7333 81.8556 44.8933 80.2556 45C78.6556 45.1067 77.0823 45.1867 75.5356 45.24C74.0423 45.2933 72.6823 45.32 71.4556 45.32C70.2823 45.32 69.4556 45.32 68.9756 45.32C66.949 45.32 64.949 45.24 62.9756 45.08C61.0023 44.8667 59.0823 44.4933 57.2156 43.96C55.349 43.3733 53.589 42.5733 51.9356 41.56C50.2823 40.5467 48.789 39.1867 47.4556 37.48L35.2156 45.08ZM46.8156 35.48L42.9756 31.56C41.109 30.1733 39.6423 28.5467 38.5756 26.68C37.509 24.76 36.9756 22.52 36.9756 19.96C36.9756 17.5067 37.4823 15.3467 38.4956 13.48C39.5623 11.56 40.949 9.90666 42.6556 8.52C44.3623 7.13333 46.309 5.96 48.4956 5C50.6823 3.98667 52.9223 3.18667 55.2156 2.6C57.509 2.01333 59.7756 1.58667 62.0156 1.32C64.2556 1.05333 66.2823 0.919999 68.0956 0.919999C71.2423 0.919999 74.4156 1.02666 77.6156 1.24C80.8156 1.4 83.9356 1.88 86.9756 2.68C90.069 3.48 93.029 4.70666 95.8556 6.36C98.6823 8.01333 101.322 10.3333 103.776 13.32C105.429 14.9733 106.736 16.36 107.696 17.48C108.656 18.5467 109.402 19.4533 109.936 20.2C110.522 20.9467 110.949 21.56 111.216 22.04C111.482 22.4667 111.749 22.8667 112.016 23.24L101.776 30.12C102.042 30.3867 102.336 30.6267 102.656 30.84C103.029 31 103.536 31.3467 104.176 31.88C104.816 32.4133 105.642 33.1867 106.656 34.2C107.722 35.16 109.136 36.5467 110.896 38.36C112.176 39.6933 113.189 41.4 113.936 43.48C114.682 45.56 115.056 47.7467 115.056 50.04C115.056 52.44 114.469 54.5733 113.296 56.44C112.122 58.3067 110.602 59.9333 108.736 61.32C106.869 62.7067 104.736 63.88 102.336 64.84C99.9356 65.8 97.509 66.5733 95.0556 67.16C92.6023 67.7467 90.2023 68.1733 87.8556 68.44C85.5623 68.7067 83.5623 68.84 81.8556 68.84C78.709 68.84 75.509 68.84 72.2556 68.84C69.0023 68.84 65.8023 68.5733 62.6556 68.04C59.5623 67.5067 56.549 66.6267 53.6156 65.4C50.6823 64.1733 47.989 62.3067 45.5356 59.8C43.4556 57.88 41.6956 56.2 40.2556 54.76C38.869 53.2667 37.669 51.9333 36.6556 50.76C35.6956 49.5333 34.869 48.4133 34.1756 47.4C33.5356 46.3867 32.9223 45.4 32.3356 44.44L46.8156 35.48ZM178.907 7.4H183.067L210.667 48.36C215.2 41.4267 219.76 34.5733 224.347 27.8C228.987 21.0267 233.654 14.2267 238.347 7.4H242.507V54.6H237.547V17.48L212.667 54.6H208.747L183.867 17.56V54.6H178.907V7.4ZM188.267 32.12L206.267 59.08H215.067L233.147 32.04V59.08H246.907V2.92H235.867L210.587 40.36L185.467 2.92H174.507V59.08H188.267V32.12ZM194.347 9.16L211.707 35.16L234.907 0.919999H248.907L256.667 9.16V68.84H239.387L231.147 61.08V58.12L223.947 68.84H213.387L205.307 61.08L198.027 50.2V68.84H180.747L172.507 61.08V0.919999H186.427L194.347 9.16ZM273.768 7.4H280.808L304.008 30.2L326.808 7.4H333.768L306.408 34.68V54.6H301.448V34.76L273.768 7.4ZM310.887 59.08V36.52L344.408 2.92H325.048L303.928 24.2L282.488 2.92H262.967L297.048 36.68V59.08H310.887ZM295.048 37.48C292.168 34.6533 289.154 31.6933 286.008 28.6C282.914 25.5067 279.768 22.3867 276.568 19.24C273.368 16.04 270.194 12.8933 267.048 9.8C263.901 6.70666 260.914 3.74666 258.087 0.919999H283.288L303.848 21.4L324.168 0.919999H349.288L356.728 9.16L320.648 45.24V68.84H303.288L295.048 61.08V37.48ZM453.164 16.76C453.804 16.76 454.444 16.8133 455.084 16.92C455.778 17.0267 456.391 17.2133 456.924 17.48C457.511 17.7467 457.991 18.12 458.364 18.6C458.738 19.08 458.924 19.72 458.924 20.52C458.924 21.2667 458.711 21.88 458.284 22.36C457.911 22.84 457.431 23.2133 456.844 23.48C456.258 23.7467 455.618 23.9333 454.924 24.04C454.231 24.1467 453.618 24.2 453.084 24.2H423.484V16.76H453.164ZM453.084 28.6C454.364 28.6 455.618 28.4667 456.844 28.2C458.124 27.88 459.244 27.4 460.204 26.76C461.164 26.12 461.938 25.2933 462.524 24.28C463.111 23.2133 463.404 21.96 463.404 20.52C463.404 19.0267 463.111 17.7733 462.524 16.76C461.991 15.6933 461.244 14.84 460.284 14.2C459.378 13.5067 458.284 13.0267 457.004 12.76C455.778 12.44 454.498 12.28 453.164 12.28H419.004V28.6H453.084ZM419.004 54.6H414.124V7.4H453.164C455.351 7.4 457.378 7.66666 459.244 8.2C461.111 8.68 462.711 9.45333 464.044 10.52C465.431 11.5333 466.498 12.8933 467.244 14.6C468.044 16.2533 468.444 18.2267 468.444 20.52C468.444 23.4533 467.751 25.88 466.364 27.8C465.031 29.6667 463.031 31.1333 460.364 32.2V32.28C459.138 32.7067 457.431 33.0267 455.244 33.24C453.058 33.4533 450.604 33.6133 447.884 33.72C445.218 33.7733 442.418 33.8 439.484 33.8C436.551 33.8 433.751 33.7733 431.084 33.72C428.418 33.6133 426.018 33.5333 423.884 33.48C421.751 33.4267 420.124 33.4 419.004 33.4V54.6ZM472.924 20.52C472.924 17.48 472.444 14.8667 471.484 12.68C470.524 10.44 469.164 8.6 467.404 7.16C465.698 5.72 463.618 4.65333 461.164 3.96C458.764 3.26666 456.098 2.92 453.164 2.92H409.644V59.08H423.484V37.8C424.764 37.8 426.418 37.8267 428.444 37.88C430.524 37.9333 432.764 38.0133 435.164 38.12C437.564 38.1733 440.071 38.2 442.684 38.2C445.298 38.2 447.804 38.1467 450.204 38.04C452.658 37.9333 454.924 37.7467 457.004 37.48C459.084 37.2133 460.818 36.84 462.204 36.36V36.28C465.724 34.7867 468.391 32.76 470.204 30.2C472.018 27.64 472.924 24.4133 472.924 20.52ZM407.644 61.08V0.919999H453.164C455.244 0.919999 457.271 1.08 459.244 1.4C461.271 1.66666 463.298 2.28 465.324 3.24C467.404 4.14667 469.538 5.45333 471.724 7.16C473.911 8.86666 476.204 11.1333 478.604 13.96C480.151 15.5067 481.218 17.56 481.804 20.12C482.391 22.68 482.684 25.48 482.684 28.52C482.684 32.84 481.671 36.4133 479.644 39.24C477.671 42.0667 474.738 44.3333 470.844 46.04C469.778 46.4133 468.498 46.7333 467.004 47C465.564 47.2133 463.964 47.4 462.204 47.56C460.444 47.72 458.578 47.8267 456.604 47.88C454.684 47.9333 452.738 47.96 450.764 47.96C447.884 47.96 445.031 47.96 442.204 47.96C439.378 47.96 436.391 47.9333 433.244 47.88V68.84H415.884L407.644 61.08ZM534.328 37.24L517.448 13.32L500.168 37.24H534.328ZM525.688 32.92H508.728L517.288 20.92L525.688 32.92ZM546.248 54.6L537.608 42.2H496.728C495.235 44.2267 493.768 46.3067 492.328 48.44C490.941 50.52 489.501 52.5733 488.008 54.6H481.608C487.261 46.6533 492.888 38.7867 498.488 31C504.141 23.2133 509.768 15.3467 515.368 7.4H519.208L552.248 54.6H546.248ZM513.208 2.92L473.208 59.08H490.168L498.968 46.68H535.128L543.848 59.08H560.808L521.608 2.92H513.208ZM530.568 9.16L572.168 68.84H550.888L542.808 61.08L539.528 56.44H507.928C507.288 57.4 506.568 58.4133 505.768 59.48C505.021 60.5467 504.248 61.6133 503.448 62.68C502.701 63.8 501.955 64.8667 501.208 65.88C500.461 66.9467 499.768 67.9333 499.128 68.84H477.768L469.288 61.08L512.168 0.919999H522.648L530.568 9.16ZM579.234 43.64C580.94 45.2933 582.834 46.5467 584.914 47.4C586.994 48.2533 589.154 48.8667 591.394 49.24C593.634 49.56 595.927 49.7467 598.274 49.8C600.62 49.8 602.887 49.8 605.074 49.8C605.874 49.8 606.94 49.7733 608.274 49.72C609.66 49.6667 611.127 49.56 612.674 49.4C614.274 49.1867 615.874 48.92 617.474 48.6C619.074 48.2267 620.514 47.7467 621.794 47.16C623.127 46.5733 624.194 45.88 624.994 45.08C625.847 44.2267 626.274 43.2133 626.274 42.04C626.274 40.8667 625.82 39.8533 624.914 39C624.06 38.0933 622.94 37.32 621.554 36.68C620.167 36.04 618.594 35.5067 616.834 35.08C615.127 34.6 613.42 34.2533 611.714 34.04C610.007 33.7733 608.407 33.5867 606.914 33.48C605.474 33.3733 604.3 33.32 603.394 33.32H603.474C602.194 33.2667 600.62 33.1333 598.754 32.92C596.887 32.7067 594.94 32.3867 592.914 31.96C590.887 31.5333 588.86 31 586.834 30.36C584.807 29.6667 582.994 28.84 581.394 27.88C579.794 26.92 578.487 25.8 577.474 24.52C576.46 23.1867 575.954 21.6667 575.954 19.96C575.954 18.0933 576.434 16.4933 577.394 15.16C578.407 13.8267 579.687 12.7067 581.234 11.8C582.834 10.84 584.62 10.0933 586.594 9.56C588.567 8.97333 590.567 8.52 592.594 8.2C594.62 7.88 596.54 7.66666 598.354 7.56C600.22 7.45333 601.794 7.4 603.074 7.4C605.154 7.4 607.26 7.50666 609.394 7.72C611.58 7.88 613.714 8.2 615.794 8.68C617.874 9.16 619.9 9.82667 621.874 10.68C623.847 11.48 625.66 12.52 627.314 13.8L623.074 16.84C621.527 15.7733 619.9 14.9467 618.194 14.36C616.487 13.72 614.727 13.24 612.914 12.92C611.1 12.6 609.26 12.4133 607.394 12.36C605.527 12.2533 603.714 12.2 601.954 12.2C600.727 12.2 599.047 12.28 596.914 12.44C594.834 12.6 592.754 12.9467 590.674 13.48C588.647 13.96 586.887 14.7333 585.394 15.8C583.9 16.8133 583.154 18.2 583.154 19.96C583.154 21.6667 583.874 23.0533 585.314 24.12C586.754 25.1333 588.647 25.96 590.994 26.6C593.34 27.1867 596.007 27.6667 598.994 28.04C602.034 28.36 605.127 28.7067 608.274 29.08C611.42 29.4533 614.487 29.9067 617.474 30.44C620.514 30.92 623.207 31.64 625.554 32.6C627.9 33.5067 629.794 34.7333 631.234 36.28C632.674 37.7733 633.394 39.6933 633.394 42.04C633.394 43.6933 632.887 45.16 631.874 46.44C630.914 47.72 629.634 48.84 628.034 49.8C626.434 50.7067 624.62 51.48 622.594 52.12C620.62 52.7067 618.62 53.1867 616.594 53.56C614.62 53.9333 612.727 54.2 610.914 54.36C609.1 54.52 607.607 54.6 606.434 54.6H600.434C598.247 54.6 595.954 54.52 593.554 54.36C591.154 54.2 588.807 53.8533 586.514 53.32C584.22 52.7333 582.034 51.9333 579.954 50.92C577.874 49.9067 576.034 48.52 574.434 46.76L579.234 43.64ZM567.794 45.08C569.927 48.5467 572.46 51.24 575.394 53.16C578.327 55.0267 581.5 56.4133 584.914 57.32C588.327 58.1733 591.847 58.68 595.474 58.84C599.154 59 602.807 59.08 606.434 59.08C608.034 59.08 609.927 58.9733 612.114 58.76C614.3 58.4933 616.567 58.0933 618.914 57.56C621.26 57.0267 623.554 56.3333 625.794 55.48C628.087 54.5733 630.114 53.5067 631.874 52.28C633.687 51 635.127 49.5333 636.194 47.88C637.314 46.1733 637.874 44.2267 637.874 42.04C637.874 39.4267 637.287 37.2133 636.114 35.4C634.994 33.5333 633.5 31.9867 631.634 30.76C629.82 29.48 627.714 28.4667 625.314 27.72C622.967 26.92 620.54 26.3067 618.034 25.88C615.527 25.4533 613.074 25.1333 610.674 24.92C608.274 24.7067 606.14 24.52 604.274 24.36C603.634 24.3067 602.407 24.2 600.594 24.04C598.78 23.8267 596.914 23.56 594.994 23.24C593.074 22.8667 591.367 22.4133 589.874 21.88C588.38 21.3467 587.634 20.7067 587.634 19.96C587.634 19.1067 588.327 18.4667 589.714 18.04C591.1 17.6133 592.674 17.2933 594.434 17.08C596.247 16.8667 597.98 16.76 599.634 16.76C601.34 16.7067 602.487 16.68 603.074 16.68C604.78 16.68 606.514 16.76 608.274 16.92C610.034 17.0267 611.74 17.2933 613.394 17.72C615.1 18.1467 616.7 18.76 618.194 19.56C619.74 20.36 621.154 21.4 622.434 22.68L634.114 14.84C632.087 12.0667 629.794 9.90666 627.234 8.36C624.674 6.76 621.954 5.56 619.074 4.76C616.194 3.96 613.18 3.45333 610.034 3.24C606.94 3.02666 603.82 2.92 600.674 2.92C599.02 2.92 597.127 3.05333 594.994 3.32C592.914 3.53333 590.78 3.90666 588.594 4.44C586.46 4.97333 584.354 5.66666 582.274 6.52C580.247 7.37333 578.434 8.44 576.834 9.72C575.234 11 573.954 12.4933 572.994 14.2C572.034 15.8533 571.554 17.7733 571.554 19.96C571.554 22.4667 572.167 24.6267 573.394 26.44C574.62 28.2533 576.247 29.8 578.274 31.08C580.3 32.36 582.594 33.4 585.154 34.2C587.714 35 590.3 35.6667 592.914 36.2C595.58 36.68 598.14 37.08 600.594 37.4C603.1 37.6667 605.287 37.9067 607.154 38.12C607.687 38.1733 608.727 38.28 610.274 38.44C611.874 38.6 613.527 38.84 615.234 39.16C616.94 39.4267 618.46 39.8 619.794 40.28C621.127 40.76 621.794 41.3467 621.794 42.04C621.794 42.6267 621.367 43.1333 620.514 43.56C619.66 43.9333 618.567 44.2533 617.234 44.52C615.9 44.7333 614.434 44.8933 612.834 45C611.234 45.1067 609.66 45.1867 608.114 45.24C606.62 45.2933 605.26 45.32 604.034 45.32C602.86 45.32 602.034 45.32 601.554 45.32C599.527 45.32 597.527 45.24 595.554 45.08C593.58 44.8667 591.66 44.4933 589.794 43.96C587.927 43.3733 586.167 42.5733 584.514 41.56C582.86 40.5467 581.367 39.1867 580.034 37.48L567.794 45.08ZM579.394 35.48L575.554 31.56C573.687 30.1733 572.22 28.5467 571.154 26.68C570.087 24.76 569.554 22.52 569.554 19.96C569.554 17.5067 570.06 15.3467 571.074 13.48C572.14 11.56 573.527 9.90666 575.234 8.52C576.94 7.13333 578.887 5.96 581.074 5C583.26 3.98667 585.5 3.18667 587.794 2.6C590.087 2.01333 592.354 1.58667 594.594 1.32C596.834 1.05333 598.86 0.919999 600.674 0.919999C603.82 0.919999 606.994 1.02666 610.194 1.24C613.394 1.4 616.514 1.88 619.554 2.68C622.647 3.48 625.607 4.70666 628.434 6.36C631.26 8.01333 633.9 10.3333 636.354 13.32C638.007 14.9733 639.314 16.36 640.274 17.48C641.234 18.5467 641.98 19.4533 642.514 20.2C643.1 20.9467 643.527 21.56 643.794 22.04C644.06 22.4667 644.327 22.8667 644.594 23.24L634.354 30.12C634.62 30.3867 634.914 30.6267 635.234 30.84C635.607 31 636.114 31.3467 636.754 31.88C637.394 32.4133 638.22 33.1867 639.234 34.2C640.3 35.16 641.714 36.5467 643.474 38.36C644.754 39.6933 645.767 41.4 646.514 43.48C647.26 45.56 647.634 47.7467 647.634 50.04C647.634 52.44 647.047 54.5733 645.874 56.44C644.7 58.3067 643.18 59.9333 641.314 61.32C639.447 62.7067 637.314 63.88 634.914 64.84C632.514 65.8 630.087 66.5733 627.634 67.16C625.18 67.7467 622.78 68.1733 620.434 68.44C618.14 68.7067 616.14 68.84 614.434 68.84C611.287 68.84 608.087 68.84 604.834 68.84C601.58 68.84 598.38 68.5733 595.234 68.04C592.14 67.5067 589.127 66.6267 586.194 65.4C583.26 64.1733 580.567 62.3067 578.114 59.8C576.034 57.88 574.274 56.2 572.834 54.76C571.447 53.2667 570.247 51.9333 569.234 50.76C568.274 49.5333 567.447 48.4133 566.754 47.4C566.114 46.3867 565.5 45.4 564.914 44.44L579.394 35.48ZM666.499 43.64C668.206 45.2933 670.099 46.5467 672.179 47.4C674.259 48.2533 676.419 48.8667 678.659 49.24C680.899 49.56 683.193 49.7467 685.539 49.8C687.886 49.8 690.153 49.8 692.339 49.8C693.139 49.8 694.206 49.7733 695.539 49.72C696.926 49.6667 698.393 49.56 699.939 49.4C701.539 49.1867 703.139 48.92 704.739 48.6C706.339 48.2267 707.779 47.7467 709.059 47.16C710.393 46.5733 711.459 45.88 712.259 45.08C713.113 44.2267 713.539 43.2133 713.539 42.04C713.539 40.8667 713.086 39.8533 712.179 39C711.326 38.0933 710.206 37.32 708.819 36.68C707.433 36.04 705.859 35.5067 704.099 35.08C702.393 34.6 700.686 34.2533 698.979 34.04C697.273 33.7733 695.673 33.5867 694.179 33.48C692.739 33.3733 691.566 33.32 690.659 33.32H690.739C689.459 33.2667 687.886 33.1333 686.019 32.92C684.153 32.7067 682.206 32.3867 680.179 31.96C678.153 31.5333 676.126 31 674.099 30.36C672.073 29.6667 670.259 28.84 668.659 27.88C667.059 26.92 665.753 25.8 664.739 24.52C663.726 23.1867 663.219 21.6667 663.219 19.96C663.219 18.0933 663.699 16.4933 664.659 15.16C665.673 13.8267 666.953 12.7067 668.499 11.8C670.099 10.84 671.886 10.0933 673.859 9.56C675.833 8.97333 677.833 8.52 679.859 8.2C681.886 7.88 683.806 7.66666 685.619 7.56C687.486 7.45333 689.059 7.4 690.339 7.4C692.419 7.4 694.526 7.50666 696.659 7.72C698.846 7.88 700.979 8.2 703.059 8.68C705.139 9.16 707.166 9.82667 709.139 10.68C711.113 11.48 712.926 12.52 714.579 13.8L710.339 16.84C708.793 15.7733 707.166 14.9467 705.459 14.36C703.753 13.72 701.993 13.24 700.179 12.92C698.366 12.6 696.526 12.4133 694.659 12.36C692.793 12.2533 690.979 12.2 689.219 12.2C687.993 12.2 686.313 12.28 684.179 12.44C682.099 12.6 680.019 12.9467 677.939 13.48C675.913 13.96 674.153 14.7333 672.659 15.8C671.166 16.8133 670.419 18.2 670.419 19.96C670.419 21.6667 671.139 23.0533 672.579 24.12C674.019 25.1333 675.913 25.96 678.259 26.6C680.606 27.1867 683.273 27.6667 686.259 28.04C689.299 28.36 692.393 28.7067 695.539 29.08C698.686 29.4533 701.753 29.9067 704.739 30.44C707.779 30.92 710.473 31.64 712.819 32.6C715.166 33.5067 717.059 34.7333 718.499 36.28C719.939 37.7733 720.659 39.6933 720.659 42.04C720.659 43.6933 720.153 45.16 719.139 46.44C718.179 47.72 716.899 48.84 715.299 49.8C713.699 50.7067 711.886 51.48 709.859 52.12C707.886 52.7067 705.886 53.1867 703.859 53.56C701.886 53.9333 699.993 54.2 698.179 54.36C696.366 54.52 694.873 54.6 693.699 54.6H687.699C685.513 54.6 683.219 54.52 680.819 54.36C678.419 54.2 676.073 53.8533 673.779 53.32C671.486 52.7333 669.299 51.9333 667.219 50.92C665.139 49.9067 663.299 48.52 661.699 46.76L666.499 43.64ZM655.059 45.08C657.193 48.5467 659.726 51.24 662.659 53.16C665.593 55.0267 668.766 56.4133 672.179 57.32C675.593 58.1733 679.113 58.68 682.739 58.84C686.419 59 690.073 59.08 693.699 59.08C695.299 59.08 697.193 58.9733 699.379 58.76C701.566 58.4933 703.833 58.0933 706.179 57.56C708.526 57.0267 710.819 56.3333 713.059 55.48C715.353 54.5733 717.379 53.5067 719.139 52.28C720.953 51 722.393 49.5333 723.459 47.88C724.579 46.1733 725.139 44.2267 725.139 42.04C725.139 39.4267 724.553 37.2133 723.379 35.4C722.259 33.5333 720.766 31.9867 718.899 30.76C717.086 29.48 714.979 28.4667 712.579 27.72C710.233 26.92 707.806 26.3067 705.299 25.88C702.793 25.4533 700.339 25.1333 697.939 24.92C695.539 24.7067 693.406 24.52 691.539 24.36C690.899 24.3067 689.673 24.2 687.859 24.04C686.046 23.8267 684.179 23.56 682.259 23.24C680.339 22.8667 678.633 22.4133 677.139 21.88C675.646 21.3467 674.899 20.7067 674.899 19.96C674.899 19.1067 675.593 18.4667 676.979 18.04C678.366 17.6133 679.939 17.2933 681.699 17.08C683.513 16.8667 685.246 16.76 686.899 16.76C688.606 16.7067 689.753 16.68 690.339 16.68C692.046 16.68 693.779 16.76 695.539 16.92C697.299 17.0267 699.006 17.2933 700.659 17.72C702.366 18.1467 703.966 18.76 705.459 19.56C707.006 20.36 708.419 21.4 709.699 22.68L721.379 14.84C719.353 12.0667 717.059 9.90666 714.499 8.36C711.939 6.76 709.219 5.56 706.339 4.76C703.459 3.96 700.446 3.45333 697.299 3.24C694.206 3.02666 691.086 2.92 687.939 2.92C686.286 2.92 684.393 3.05333 682.259 3.32C680.179 3.53333 678.046 3.90666 675.859 4.44C673.726 4.97333 671.619 5.66666 669.539 6.52C667.513 7.37333 665.699 8.44 664.099 9.72C662.499 11 661.219 12.4933 660.259 14.2C659.299 15.8533 658.819 17.7733 658.819 19.96C658.819 22.4667 659.433 24.6267 660.659 26.44C661.886 28.2533 663.513 29.8 665.539 31.08C667.566 32.36 669.859 33.4 672.419 34.2C674.979 35 677.566 35.6667 680.179 36.2C682.846 36.68 685.406 37.08 687.859 37.4C690.366 37.6667 692.553 37.9067 694.419 38.12C694.953 38.1733 695.993 38.28 697.539 38.44C699.139 38.6 700.793 38.84 702.499 39.16C704.206 39.4267 705.726 39.8 707.059 40.28C708.393 40.76 709.059 41.3467 709.059 42.04C709.059 42.6267 708.633 43.1333 707.779 43.56C706.926 43.9333 705.833 44.2533 704.499 44.52C703.166 44.7333 701.699 44.8933 700.099 45C698.499 45.1067 696.926 45.1867 695.379 45.24C693.886 45.2933 692.526 45.32 691.299 45.32C690.126 45.32 689.299 45.32 688.819 45.32C686.793 45.32 684.793 45.24 682.819 45.08C680.846 44.8667 678.926 44.4933 677.059 43.96C675.193 43.3733 673.433 42.5733 671.779 41.56C670.126 40.5467 668.633 39.1867 667.299 37.48L655.059 45.08ZM666.659 35.48L662.819 31.56C660.953 30.1733 659.486 28.5467 658.419 26.68C657.353 24.76 656.819 22.52 656.819 19.96C656.819 17.5067 657.326 15.3467 658.339 13.48C659.406 11.56 660.793 9.90666 662.499 8.52C664.206 7.13333 666.153 5.96 668.339 5C670.526 3.98667 672.766 3.18667 675.059 2.6C677.353 2.01333 679.619 1.58667 681.859 1.32C684.099 1.05333 686.126 0.919999 687.939 0.919999C691.086 0.919999 694.259 1.02666 697.459 1.24C700.659 1.4 703.779 1.88 706.819 2.68C709.913 3.48 712.873 4.70666 715.699 6.36C718.526 8.01333 721.166 10.3333 723.619 13.32C725.273 14.9733 726.579 16.36 727.539 17.48C728.499 18.5467 729.246 19.4533 729.779 20.2C730.366 20.9467 730.793 21.56 731.059 22.04C731.326 22.4667 731.593 22.8667 731.859 23.24L721.619 30.12C721.886 30.3867 722.179 30.6267 722.499 30.84C722.873 31 723.379 31.3467 724.019 31.88C724.659 32.4133 725.486 33.1867 726.499 34.2C727.566 35.16 728.979 36.5467 730.739 38.36C732.019 39.6933 733.033 41.4 733.779 43.48C734.526 45.56 734.899 47.7467 734.899 50.04C734.899 52.44 734.313 54.5733 733.139 56.44C731.966 58.3067 730.446 59.9333 728.579 61.32C726.713 62.7067 724.579 63.88 722.179 64.84C719.779 65.8 717.353 66.5733 714.899 67.16C712.446 67.7467 710.046 68.1733 707.699 68.44C705.406 68.7067 703.406 68.84 701.699 68.84C698.553 68.84 695.353 68.84 692.099 68.84C688.846 68.84 685.646 68.5733 682.499 68.04C679.406 67.5067 676.393 66.6267 673.459 65.4C670.526 64.1733 667.833 62.3067 665.379 59.8C663.299 57.88 661.539 56.2 660.099 54.76C658.713 53.2667 657.513 51.9333 656.499 50.76C655.539 49.5333 654.713 48.4133 654.019 47.4C653.379 46.3867 652.766 45.4 652.179 44.44L666.659 35.48ZM746.061 7.4H750.861V54.6H746.061V7.4ZM755.261 2.92H741.661V59.08H755.261V2.92ZM739.661 61.08V0.919999H757.261L765.021 9.16V68.84H747.901L739.661 61.08ZM818.979 49.72C822.072 49.72 824.952 49.4 827.619 48.76C830.339 48.0667 832.685 47 834.659 45.56C836.685 44.0667 838.259 42.1467 839.379 39.8C840.499 37.4 841.059 34.4667 841.059 31C841.059 27.5867 840.472 24.68 839.299 22.28C838.179 19.88 836.632 17.96 834.659 16.52C832.685 15.0267 830.339 13.96 827.619 13.32C824.952 12.6267 822.072 12.28 818.979 12.28H810.179C807.032 12.28 804.099 12.6267 801.379 13.32C798.712 13.96 796.392 15.0267 794.419 16.52C792.445 17.96 790.872 19.88 789.699 22.28C788.579 24.68 788.019 27.5867 788.019 31C788.019 34.4667 788.579 37.4 789.699 39.8C790.872 42.1467 792.445 44.0667 794.419 45.56C796.392 47.0533 798.712 48.12 801.379 48.76C804.099 49.4 807.032 49.72 810.179 49.72H818.979ZM810.179 45.24C807.779 45.24 805.512 45 803.379 44.52C801.245 44.04 799.379 43.2667 797.779 42.2C796.179 41.08 794.899 39.6133 793.939 37.8C792.979 35.9867 792.499 33.72 792.499 31C792.499 28.3333 792.979 26.0933 793.939 24.28C794.899 22.4667 796.179 21 797.779 19.88C799.432 18.76 801.325 17.96 803.459 17.48C805.592 17 807.832 16.76 810.179 16.76H818.979C821.325 16.76 823.565 17 825.699 17.48C827.832 17.96 829.699 18.76 831.299 19.88C832.899 21 834.179 22.4667 835.139 24.28C836.099 26.0933 836.579 28.3333 836.579 31C836.579 33.6667 836.099 35.9067 835.139 37.72C834.232 39.5333 832.979 41 831.379 42.12C829.779 43.24 827.912 44.04 825.779 44.52C823.645 45 821.379 45.24 818.979 45.24H810.179ZM782.979 31C782.979 26.68 783.645 23.0267 784.979 20.04C786.365 17.0533 788.259 14.6267 790.659 12.76C793.112 10.84 795.992 9.48 799.299 8.68C802.659 7.82666 806.285 7.4 810.179 7.4H818.979C822.872 7.4 826.472 7.82666 829.779 8.68C833.085 9.53333 835.939 10.8933 838.339 12.76C840.792 14.6267 842.685 17.0533 844.019 20.04C845.405 23.0267 846.099 26.68 846.099 31C846.099 35.32 845.405 38.9733 844.019 41.96C842.685 44.9467 840.792 47.3733 838.339 49.24C835.939 51.1067 833.085 52.4667 829.779 53.32C826.472 54.1733 822.872 54.6 818.979 54.6H810.179C806.285 54.6 802.659 54.2 799.299 53.4C795.992 52.5467 793.112 51.1867 790.659 49.32C788.259 47.4 786.365 44.9467 784.979 41.96C783.645 38.9733 782.979 35.32 782.979 31ZM778.499 31C778.499 36.0667 779.272 40.3867 780.819 43.96C782.419 47.48 784.605 50.36 787.379 52.6C790.205 54.84 793.539 56.4933 797.379 57.56C801.272 58.5733 805.539 59.08 810.179 59.08H818.979C823.619 59.08 827.859 58.5733 831.699 57.56C835.539 56.4933 838.845 54.84 841.619 52.6C844.445 50.36 846.632 47.48 848.179 43.96C849.725 40.3867 850.499 36.0667 850.499 31C850.499 25.9333 849.725 21.64 848.179 18.12C846.632 14.5467 844.445 11.64 841.619 9.4C838.845 7.16 835.539 5.53333 831.699 4.52C827.859 3.45333 823.619 2.92 818.979 2.92H810.179C805.539 2.92 801.272 3.45333 797.379 4.52C793.539 5.53333 790.205 7.16 787.379 9.4C784.605 11.64 782.419 14.5467 780.819 18.12C779.272 21.64 778.499 25.9333 778.499 31ZM776.499 31C776.499 25.56 777.325 20.9467 778.979 17.16C780.632 13.32 782.952 10.2 785.939 7.8C788.925 5.4 792.472 3.66666 796.579 2.6C800.739 1.48 805.272 0.919999 810.179 0.919999H818.979C822.072 0.919999 824.979 1.10666 827.699 1.48C830.472 1.8 833.192 2.52 835.859 3.64C838.525 4.70666 841.165 6.25333 843.779 8.28C846.445 10.2533 849.192 12.92 852.019 16.28C854.419 18.68 856.392 21.8533 857.939 25.8C859.485 29.7467 860.259 34.1467 860.259 39C860.259 44.3867 859.432 48.9733 857.779 52.76C856.179 56.5467 853.885 59.6133 850.899 61.96C847.965 64.36 844.445 66.0933 840.339 67.16C836.285 68.28 831.832 68.84 826.979 68.84H818.179C812.739 68.84 807.672 68.2267 802.979 67C798.285 65.7733 794.419 63.6667 791.379 60.68C788.339 58.0133 785.859 55.5067 783.939 53.16C782.019 50.76 780.499 48.3867 779.379 46.04C778.312 43.6933 777.565 41.2933 777.139 38.84C776.712 36.3867 776.499 33.7733 776.499 31ZM818.979 43.24C821.059 43.24 823.032 43.0533 824.899 42.68C826.819 42.2533 828.499 41.56 829.939 40.6C831.379 39.64 832.499 38.3867 833.299 36.84C834.152 35.24 834.579 33.2933 834.579 31C834.579 29.72 834.419 28.5467 834.099 27.48C831.912 26.84 829.539 26.52 826.979 26.52H818.179C816.045 26.52 814.019 26.7333 812.099 27.16C810.179 27.5867 808.472 28.28 806.979 29.24C805.539 30.2 804.392 31.48 803.539 33.08C802.685 34.68 802.259 36.6533 802.259 39C802.259 40.28 802.365 41.3467 802.579 42.2C803.699 42.5733 804.899 42.84 806.179 43C807.459 43.16 808.792 43.24 810.179 43.24H818.979ZM879.776 15V54.6H875.056V7.4H879.136L922.096 47V7.4H926.896V54.6H922.896L879.776 15ZM931.376 2.92H917.696V36.92L880.656 2.92H870.576V59.08H884.256V25L921.376 59.08H931.376V2.92ZM868.576 61.08V0.919999H881.376L915.696 32.36V0.919999H933.376L941.136 9.16V68.84H928.656L894.016 37.08V68.84H876.816L868.576 61.08ZM955.189 65.16C956.043 63.3467 956.603 61.24 956.869 58.84C957.136 56.44 957.136 54.2533 956.869 52.28H961.909V58.52L958.069 65.16H955.189ZM966.309 59.72V47.8H952.389C952.603 49.5067 952.709 51.32 952.709 53.24C952.656 55.1067 952.496 57 952.229 58.92C951.963 60.84 951.589 62.7067 951.109 64.52C950.629 66.3867 950.069 68.0933 949.429 69.64H960.629L966.309 59.72ZM946.389 71.64C948.096 67.48 949.296 63.32 949.989 59.16C950.629 55 950.683 50.5467 950.149 45.8H968.309L976.069 54.04V68.2L969.669 79.4H954.789L946.389 71.64Z" fill="#FFF9F1"/>
</svg>
