<svg width="177" height="180" viewBox="0 0 177 180" fill="none" xmlns="http://www.w3.org/2000/svg">
<path d="M88.6464 107.354C88.8417 107.549 89.1583 107.549 89.3536 107.354L92.5355 104.172C92.7308 103.976 92.7308 103.66 92.5355 103.464C92.3403 103.269 92.0237 103.269 91.8284 103.464L89 106.293L86.1716 103.464C85.9763 103.269 85.6597 103.269 85.4645 103.464C85.2692 103.66 85.2692 103.976 85.4645 104.172L88.6464 107.354ZM88.5 70L88.5 107L89.5 107L89.5 70L88.5 70Z" fill="black"/>
<circle cx="88.5" cy="88.5" r="88" stroke="black"/>
<circle cx="12.5" cy="44.5" r="3.5" fill="#252F1D"/>
<circle cx="164.5" cy="44.5" r="3.5" fill="#252F1D"/>
<circle cx="88.5" cy="176.5" r="3.5" fill="#252F1D"/>
</svg>
