<svg width="1042" height="71" viewBox="0 0 1042 71" fill="none" xmlns="http://www.w3.org/2000/svg">
<path d="M66 37.24L49.12 13.32L31.84 37.24H66ZM57.36 32.92H40.4L48.96 20.92L57.36 32.92ZM77.92 54.6L69.28 42.2H28.4C26.9067 44.2267 25.44 46.3067 24 48.44C22.6133 50.52 21.1733 52.5733 19.68 54.6H13.28C18.9333 46.6533 24.56 38.7867 30.16 31C35.8133 23.2133 41.44 15.3467 47.04 7.4H50.88L83.92 54.6H77.92ZM44.88 2.92L4.88 59.08H21.84L30.64 46.68H66.8L75.52 59.08H92.48L53.28 2.92H44.88ZM62.24 9.16L103.84 68.84H82.56L74.48 61.08L71.2 56.44H39.6C38.96 57.4 38.24 58.4133 37.44 59.48C36.6933 60.5467 35.92 61.6133 35.12 62.68C34.3733 63.8 33.6267 64.8667 32.88 65.88C32.1333 66.9467 31.44 67.9333 30.8 68.84H9.44L0.96 61.08L43.84 0.919999H54.32L62.24 9.16ZM113.714 15V54.6H108.994V7.4H113.074L156.034 47V7.4H160.834V54.6H156.834L113.714 15ZM165.314 2.92H151.634V36.92L114.594 2.92H104.514V59.08H118.194V25L155.314 59.08H165.314V2.92ZM102.514 61.08V0.919999H115.314L149.634 32.36V0.919999H167.314L175.074 9.16V68.84H162.594L127.954 37.08V68.84H110.754L102.514 61.08ZM227.527 49.72C230.62 49.72 233.527 49.4 236.247 48.76C238.967 48.12 241.314 47.0533 243.287 45.56C245.314 44.0667 246.887 42.1467 248.007 39.8C249.18 37.4 249.767 34.4667 249.767 31C249.767 27.5333 249.18 24.6267 248.007 22.28C246.887 19.88 245.314 17.9333 243.287 16.44C241.314 14.9467 238.967 13.88 236.247 13.24C233.527 12.6 230.62 12.28 227.527 12.28H199.047V49.72H227.527ZM227.527 16.76C229.927 16.76 232.194 17 234.327 17.48C236.514 17.9067 238.407 18.68 240.007 19.8C241.66 20.92 242.967 22.3867 243.927 24.2C244.94 26.0133 245.447 28.28 245.447 31C245.447 33.72 244.967 36.0133 244.007 37.88C243.047 39.6933 241.74 41.16 240.087 42.28C238.434 43.3467 236.514 44.12 234.327 44.6C232.194 45.0267 229.927 45.24 227.527 45.24H203.367V16.76H227.527ZM227.527 7.4C231.42 7.4 235.02 7.82666 238.327 8.68C241.634 9.48 244.514 10.84 246.967 12.76C249.42 14.6267 251.34 17.0533 252.727 20.04C254.114 23.0267 254.807 26.68 254.807 31C254.807 35.32 254.114 38.9733 252.727 41.96C251.34 44.9467 249.42 47.4 246.967 49.32C244.514 51.1867 241.634 52.5467 238.327 53.4C235.02 54.2 231.42 54.6 227.527 54.6H194.167V7.4H227.527ZM227.527 59.08C232.167 59.08 236.407 58.5733 240.247 57.56C244.14 56.5467 247.474 54.92 250.247 52.68C253.074 50.44 255.26 47.5333 256.807 43.96C258.407 40.3867 259.207 36.0667 259.207 31C259.207 25.9333 258.407 21.6133 256.807 18.04C255.26 14.4667 253.074 11.56 250.247 9.32C247.474 7.08 244.14 5.45333 240.247 4.44C236.407 3.42666 232.167 2.92 227.527 2.92H189.767V59.08H227.527ZM187.767 0.919999H227.527C230.567 0.919999 233.5 1.08 236.327 1.4C239.154 1.66666 241.927 2.30666 244.647 3.32C247.42 4.33333 250.167 5.82666 252.887 7.8C255.66 9.77333 258.487 12.44 261.367 15.8C263.767 18.2 265.634 21.48 266.967 25.64C268.3 29.7467 268.967 34.2 268.967 39C268.967 44.3867 268.14 48.9733 266.487 52.76C264.834 56.5467 262.514 59.6133 259.527 61.96C256.594 64.36 253.074 66.0933 248.967 67.16C244.86 68.28 240.38 68.84 235.527 68.84H196.007L187.767 61.08V0.919999ZM213.127 43.24H227.527C229.66 43.24 231.687 43.0533 233.607 42.68C235.527 42.2533 237.207 41.5867 238.647 40.68C240.14 39.72 241.314 38.4667 242.167 36.92C243.02 35.32 243.447 33.3467 243.447 31C243.447 29.8267 243.314 28.6533 243.047 27.48C240.7 26.84 238.194 26.52 235.527 26.52H213.127V43.24ZM335.344 7.4H339.504L367.104 48.36C371.638 41.4267 376.198 34.5733 380.784 27.8C385.424 21.0267 390.091 14.2267 394.784 7.4H398.944V54.6H393.984V17.48L369.104 54.6H365.184L340.304 17.56V54.6H335.344V7.4ZM344.704 32.12L362.704 59.08H371.504L389.584 32.04V59.08H403.344V2.92H392.304L367.024 40.36L341.904 2.92H330.944V59.08H344.704V32.12ZM350.784 9.16L368.144 35.16L391.344 0.919999H405.344L413.104 9.16V68.84H395.824L387.584 61.08V58.12L380.384 68.84H369.824L361.744 61.08L354.464 50.2V68.84H337.184L328.944 61.08V0.919999H342.864L350.784 9.16ZM430.205 7.4H437.245L460.445 30.2L483.245 7.4H490.205L462.845 34.68V54.6H457.885V34.76L430.205 7.4ZM467.325 59.08V36.52L500.845 2.92H481.485L460.365 24.2L438.925 2.92H419.405L453.485 36.68V59.08H467.325ZM451.485 37.48C448.605 34.6533 445.592 31.6933 442.445 28.6C439.352 25.5067 436.205 22.3867 433.005 19.24C429.805 16.04 426.632 12.8933 423.485 9.8C420.338 6.70666 417.352 3.74666 414.525 0.919999H439.725L460.285 21.4L480.605 0.919999H505.725L513.165 9.16L477.085 45.24V68.84H459.725L451.485 61.08V37.48ZM597.682 12.28H570.882V7.4H629.362V12.28H602.482V54.6H597.682V12.28ZM606.882 16.76H633.762V2.92H566.482V16.76H593.282V59.08H606.882V16.76ZM564.482 18.76V0.919999H635.762L643.522 9.16V26.52H616.642V68.84H599.522L591.282 61.08V26.52H572.722L564.482 18.76ZM697.273 16.76C697.913 16.76 698.58 16.8133 699.273 16.92C699.966 17.0267 700.606 17.2133 701.193 17.48C701.78 17.7467 702.26 18.12 702.633 18.6C703.06 19.08 703.273 19.72 703.273 20.52C703.273 21.2667 703.06 21.88 702.633 22.36C702.206 22.84 701.673 23.2133 701.033 23.48C700.446 23.7467 699.78 23.9333 699.033 24.04C698.34 24.1467 697.726 24.2 697.193 24.2H667.593V16.76H697.273ZM697.193 28.6C698.473 28.6 699.726 28.4667 700.953 28.2C702.233 27.88 703.38 27.4 704.393 26.76C705.406 26.12 706.206 25.2933 706.793 24.28C707.433 23.2133 707.753 21.96 707.753 20.52C707.753 19.0267 707.46 17.7467 706.873 16.68C706.286 15.6133 705.486 14.76 704.473 14.12C703.513 13.48 702.393 13.0267 701.113 12.76C699.886 12.44 698.606 12.28 697.273 12.28H663.193V28.6H697.193ZM704.473 32.2C703.726 32.6267 702.9 32.9467 701.993 33.16C701.086 33.3733 700.233 33.5867 699.433 33.8C702.42 37.32 705.406 40.7867 708.393 44.2C711.433 47.6133 714.473 51.08 717.513 54.6H711.033L692.553 33.4H663.193V54.6H658.233V7.4H697.273C699.46 7.4 701.486 7.64 703.353 8.12C705.273 8.6 706.9 9.37333 708.233 10.44C709.62 11.5067 710.686 12.8667 711.433 14.52C712.233 16.1733 712.633 18.1733 712.633 20.52C712.633 23.4533 711.966 25.88 710.633 27.8C709.3 29.6667 707.273 31.1333 704.553 32.2H704.473ZM717.113 20.52C717.113 17.48 716.633 14.8667 715.673 12.68C714.713 10.44 713.353 8.6 711.593 7.16C709.833 5.72 707.726 4.65333 705.273 3.96C702.873 3.26666 700.206 2.92 697.273 2.92H653.913V59.08H667.593V37.8H690.473L708.873 59.08H727.273L707.113 35.96C713.78 33.0267 717.113 27.88 717.113 20.52ZM651.913 61.08V0.919999H697.273C699.353 0.919999 701.353 1.08 703.273 1.4C705.193 1.66666 707.113 2.25333 709.033 3.16C711.006 4.06666 713.033 5.37333 715.113 7.08C717.246 8.78666 719.513 11.0533 721.913 13.88C723.46 15.4267 724.66 17.5067 725.513 20.12C726.42 22.68 726.873 25.48 726.873 28.52C726.873 32.04 726.1 35.16 724.553 37.88C723.06 40.6 720.873 42.8133 717.993 44.52C719.646 46.44 721.38 48.44 723.193 50.52C725.006 52.6 726.82 54.7067 728.633 56.84C730.446 58.92 732.233 60.9733 733.993 63C735.806 65.08 737.513 67.0267 739.113 68.84H716.073L707.993 61.08L696.313 47.56H677.353V68.84H660.153L651.913 61.08ZM801.391 37.24L784.511 13.32L767.231 37.24H801.391ZM792.751 32.92H775.791L784.351 20.92L792.751 32.92ZM813.311 54.6L804.671 42.2H763.791C762.297 44.2267 760.831 46.3067 759.391 48.44C758.004 50.52 756.564 52.5733 755.071 54.6H748.671C754.324 46.6533 759.951 38.7867 765.551 31C771.204 23.2133 776.831 15.3467 782.431 7.4H786.271L819.311 54.6H813.311ZM780.271 2.92L740.271 59.08H757.231L766.031 46.68H802.191L810.911 59.08H827.871L788.671 2.92H780.271ZM797.631 9.16L839.231 68.84H817.951L809.871 61.08L806.591 56.44H774.991C774.351 57.4 773.631 58.4133 772.831 59.48C772.084 60.5467 771.311 61.6133 770.511 62.68C769.764 63.8 769.017 64.8667 768.271 65.88C767.524 66.9467 766.831 67.9333 766.191 68.84H744.831L736.351 61.08L779.231 0.919999H789.711L797.631 9.16ZM881.043 49.72C884.136 49.72 887.043 49.4 889.763 48.76C892.483 48.12 894.829 47.0533 896.803 45.56C898.829 44.0667 900.403 42.1467 901.523 39.8C902.696 37.4 903.283 34.4667 903.283 31C903.283 27.5333 902.696 24.6267 901.523 22.28C900.403 19.88 898.829 17.9333 896.803 16.44C894.829 14.9467 892.483 13.88 889.763 13.24C887.043 12.6 884.136 12.28 881.043 12.28H852.563V49.72H881.043ZM881.043 16.76C883.443 16.76 885.709 17 887.843 17.48C890.029 17.9067 891.923 18.68 893.523 19.8C895.176 20.92 896.483 22.3867 897.443 24.2C898.456 26.0133 898.963 28.28 898.963 31C898.963 33.72 898.483 36.0133 897.523 37.88C896.563 39.6933 895.256 41.16 893.603 42.28C891.949 43.3467 890.029 44.12 887.843 44.6C885.709 45.0267 883.443 45.24 881.043 45.24H856.883V16.76H881.043ZM881.043 7.4C884.936 7.4 888.536 7.82666 891.843 8.68C895.149 9.48 898.029 10.84 900.483 12.76C902.936 14.6267 904.856 17.0533 906.243 20.04C907.629 23.0267 908.323 26.68 908.323 31C908.323 35.32 907.629 38.9733 906.243 41.96C904.856 44.9467 902.936 47.4 900.483 49.32C898.029 51.1867 895.149 52.5467 891.843 53.4C888.536 54.2 884.936 54.6 881.043 54.6H847.683V7.4H881.043ZM881.043 59.08C885.683 59.08 889.923 58.5733 893.763 57.56C897.656 56.5467 900.989 54.92 903.763 52.68C906.589 50.44 908.776 47.5333 910.323 43.96C911.923 40.3867 912.723 36.0667 912.723 31C912.723 25.9333 911.923 21.6133 910.323 18.04C908.776 14.4667 906.589 11.56 903.763 9.32C900.989 7.08 897.656 5.45333 893.763 4.44C889.923 3.42666 885.683 2.92 881.043 2.92H843.283V59.08H881.043ZM841.283 0.919999H881.043C884.083 0.919999 887.016 1.08 889.843 1.4C892.669 1.66666 895.443 2.30666 898.163 3.32C900.936 4.33333 903.683 5.82666 906.403 7.8C909.176 9.77333 912.003 12.44 914.883 15.8C917.283 18.2 919.149 21.48 920.483 25.64C921.816 29.7467 922.483 34.2 922.483 39C922.483 44.3867 921.656 48.9733 920.003 52.76C918.349 56.5467 916.029 59.6133 913.043 61.96C910.109 64.36 906.589 66.0933 902.483 67.16C898.376 68.28 893.896 68.84 889.043 68.84H849.523L841.283 61.08V0.919999ZM866.643 43.24H881.043C883.176 43.24 885.203 43.0533 887.123 42.68C889.043 42.2533 890.723 41.5867 892.163 40.68C893.656 39.72 894.829 38.4667 895.683 36.92C896.536 35.32 896.963 33.3467 896.963 31C896.963 29.8267 896.829 28.6533 896.563 27.48C894.216 26.84 891.709 26.52 889.043 26.52H866.643V43.24ZM985.693 28.6V33.4H944.973V49.72H994.013V54.6H940.013V7.4H993.933V12.28H944.973V28.6H985.693ZM998.413 16.76V2.92H935.533V59.08H998.493V45.24H949.373V37.8H990.093V24.2H949.373V16.76H998.413ZM933.533 61.08V0.919999H1000.41L1008.17 9.16V26.52H995.933L999.853 30.44V43.24L1008.25 51.48V68.84H941.773L933.533 61.08ZM1022.84 56.36V51.8H1027.8V56.36H1022.84ZM1032.2 60.76V47.4H1018.44V60.76H1032.2ZM1016.44 62.76V45.4H1034.2L1041.96 53.64V70.52H1024.68L1016.44 62.76Z" fill="#FFF9F1"/>
</svg>
